<svg width="166" height="24" viewBox="0 0 166 24" fill="none" xmlns="http://www.w3.org/2000/svg">
<g clip-path="url(#clip0_589_381)">
<path d="M10.9805 3.88281L8.69531 8.55859L3.52734 9.29688C2.61328 9.4375 2.26172 10.5625 2.92969 11.2305L6.62109 14.8516L5.74219 19.9492C5.60156 20.8633 6.58594 21.5664 7.39453 21.1445L12 18.7188L16.5703 21.1445C17.3789 21.5664 18.3633 20.8633 18.2227 19.9492L17.3438 14.8516L21.0352 11.2305C21.7031 10.5625 21.3516 9.4375 20.4375 9.29688L15.3047 8.55859L12.9844 3.88281C12.5977 3.07422 11.4023 3.03906 10.9805 3.88281Z" fill="#FFAD0D"/>
</g>
<g clip-path="url(#clip1_589_381)">
<path d="M34.9805 3.88281L32.6953 8.55859L27.5273 9.29688C26.6133 9.4375 26.2617 10.5625 26.9297 11.2305L30.6211 14.8516L29.7422 19.9492C29.6016 20.8633 30.5859 21.5664 31.3945 21.1445L36 18.7188L40.5703 21.1445C41.3789 21.5664 42.3633 20.8633 42.2227 19.9492L41.3438 14.8516L45.0352 11.2305C45.7031 10.5625 45.3516 9.4375 44.4375 9.29688L39.3047 8.55859L36.9844 3.88281C36.5977 3.07422 35.4023 3.03906 34.9805 3.88281Z" fill="#FFAD0D"/>
</g>
<g clip-path="url(#clip2_589_381)">
<path d="M58.9805 3.88281L56.6953 8.55859L51.5273 9.29688C50.6133 9.4375 50.2617 10.5625 50.9297 11.2305L54.6211 14.8516L53.7422 19.9492C53.6016 20.8633 54.5859 21.5664 55.3945 21.1445L60 18.7188L64.5703 21.1445C65.3789 21.5664 66.3633 20.8633 66.2227 19.9492L65.3438 14.8516L69.0352 11.2305C69.7031 10.5625 69.3516 9.4375 68.4375 9.29688L63.3047 8.55859L60.9844 3.88281C60.5977 3.07422 59.4023 3.03906 58.9805 3.88281Z" fill="#FFAD0D"/>
</g>
<g clip-path="url(#clip3_589_381)">
<path d="M82.9805 3.88281L80.6953 8.55859L75.5273 9.29688C74.6133 9.4375 74.2617 10.5625 74.9297 11.2305L78.6211 14.8516L77.7422 19.9492C77.6016 20.8633 78.5859 21.5664 79.3945 21.1445L84 18.7188L88.5703 21.1445C89.3789 21.5664 90.3633 20.8633 90.2227 19.9492L89.3438 14.8516L93.0352 11.2305C93.7031 10.5625 93.3516 9.4375 92.4375 9.29688L87.3047 8.55859L84.9844 3.88281C84.5977 3.07422 83.4023 3.03906 82.9805 3.88281Z" fill="#FFAD0D"/>
</g>
<g clip-path="url(#clip4_589_381)">
<path d="M116.438 9.29688L111.305 8.55859L108.984 3.88281C108.598 3.07422 107.402 3.03906 106.98 3.88281L104.695 8.55859L99.5273 9.29688C98.6133 9.4375 98.2617 10.5625 98.9297 11.2305L102.621 14.8516L101.742 19.9492C101.602 20.8633 102.586 21.5664 103.395 21.1445L108 18.7188L112.57 21.1445C113.379 21.5664 114.363 20.8633 114.223 19.9492L113.344 14.8516L117.035 11.2305C117.703 10.5625 117.352 9.4375 116.438 9.29688ZM112.113 14.4297L113.098 20.125L108 17.4531L102.867 20.125L103.852 14.4297L99.7031 10.4219L105.434 9.57812L108 4.375L110.531 9.57812L116.262 10.4219L112.113 14.4297Z" fill="#FFAD0D"/>
</g>
<path d="M130.304 18.736C129.739 18.0853 129.285 17.2053 128.944 16.096C128.603 14.976 128.432 13.7653 128.432 12.464C128.432 11.1307 128.597 9.92 128.928 8.832C129.259 7.744 129.717 6.85333 130.304 6.16H131.616C130.251 7.856 129.568 9.95733 129.568 12.464C129.568 13.6587 129.744 14.8053 130.096 15.904C130.448 16.992 130.955 17.936 131.616 18.736H130.304ZM138.563 6.848V14.016H140.355V15.344H138.563V18H137.123V15.344H131.875V14.032L137.075 6.848H138.563ZM137.123 8.736L133.379 14.016H137.123V8.736ZM142.978 18H141.474V16.112H142.978V18ZM148.551 6.848H149.991V18H148.551V9.824H145.655V8.624H147.559C147.9 8.624 148.151 8.55467 148.311 8.416C148.471 8.26667 148.551 8.02133 148.551 7.68V6.848ZM161.174 16.672V18H153.702V16.752C153.916 16.6027 154.076 16.4853 154.182 16.4C155.132 15.7387 155.958 15.1147 156.662 14.528C157.366 13.9413 157.985 13.2693 158.518 12.512C159.052 11.7547 159.318 10.9813 159.318 10.192C159.318 9.56267 159.142 9.06133 158.79 8.688C158.449 8.31467 157.953 8.128 157.302 8.128C156.577 8.128 156.028 8.37333 155.654 8.864C155.292 9.344 155.1 9.968 155.078 10.736L153.686 10.624C153.686 9.92 153.825 9.27467 154.102 8.688C154.39 8.09067 154.812 7.616 155.366 7.264C155.921 6.912 156.577 6.736 157.334 6.736C158.006 6.736 158.598 6.88 159.11 7.168C159.622 7.44533 160.017 7.84533 160.294 8.368C160.582 8.88 160.726 9.47733 160.726 10.16C160.726 10.992 160.513 11.7813 160.086 12.528C159.67 13.2747 159.121 13.968 158.438 14.608C157.756 15.248 156.913 15.936 155.91 16.672H161.174ZM161.798 18.736C162.449 17.936 162.95 16.992 163.302 15.904C163.654 14.8053 163.83 13.6587 163.83 12.464C163.83 9.95733 163.147 7.856 161.782 6.16H163.094C163.681 6.85333 164.139 7.744 164.47 8.832C164.801 9.92 164.966 11.1307 164.966 12.464C164.966 13.7653 164.795 14.976 164.454 16.096C164.113 17.2053 163.659 18.0853 163.094 18.736H161.798Z" fill="#FFAD0D"/>
<defs>
<clipPath id="clip0_589_381">
<rect width="24" height="24" fill="white"/>
</clipPath>
<clipPath id="clip1_589_381">
<rect width="24" height="24" fill="white" transform="translate(24)"/>
</clipPath>
<clipPath id="clip2_589_381">
<rect width="24" height="24" fill="white" transform="translate(48)"/>
</clipPath>
<clipPath id="clip3_589_381">
<rect width="24" height="24" fill="white" transform="translate(72)"/>
</clipPath>
<clipPath id="clip4_589_381">
<rect width="24" height="24" fill="white" transform="translate(96)"/>
</clipPath>
</defs>
</svg>
