<svg width="100" height="20" viewBox="0 0 100 20" fill="none" xmlns="http://www.w3.org/2000/svg">
<g clip-path="url(#clip0_589_388)">
<path d="M9.15039 3.40234L7.24609 7.29883L2.93945 7.91406C2.17773 8.03125 1.88477 8.96875 2.44141 9.52539L5.51758 12.543L4.78516 16.791C4.66797 17.5527 5.48828 18.1387 6.16211 17.7871L10 15.7656L13.8086 17.7871C14.4824 18.1387 15.3027 17.5527 15.1855 16.791L14.4531 12.543L17.5293 9.52539C18.0859 8.96875 17.793 8.03125 17.0312 7.91406L12.7539 7.29883L10.8203 3.40234C10.498 2.72852 9.50195 2.69922 9.15039 3.40234Z" fill="#FFAD0D"/>
</g>
<g clip-path="url(#clip1_589_388)">
<path d="M29.1504 3.40234L27.2461 7.29883L22.9395 7.91406C22.1777 8.03125 21.8848 8.96875 22.4414 9.52539L25.5176 12.543L24.7852 16.791C24.668 17.5527 25.4883 18.1387 26.1621 17.7871L30 15.7656L33.8086 17.7871C34.4824 18.1387 35.3027 17.5527 35.1855 16.791L34.4531 12.543L37.5293 9.52539C38.0859 8.96875 37.793 8.03125 37.0312 7.91406L32.7539 7.29883L30.8203 3.40234C30.498 2.72852 29.502 2.69922 29.1504 3.40234Z" fill="#FFAD0D"/>
</g>
<g clip-path="url(#clip2_589_388)">
<path d="M49.1504 3.40234L47.2461 7.29883L42.9395 7.91406C42.1777 8.03125 41.8848 8.96875 42.4414 9.52539L45.5176 12.543L44.7852 16.791C44.668 17.5527 45.4883 18.1387 46.1621 17.7871L50 15.7656L53.8086 17.7871C54.4824 18.1387 55.3027 17.5527 55.1855 16.791L54.4531 12.543L57.5293 9.52539C58.0859 8.96875 57.793 8.03125 57.0312 7.91406L52.7539 7.29883L50.8203 3.40234C50.498 2.72852 49.502 2.69922 49.1504 3.40234Z" fill="#FFAD0D"/>
</g>
<g clip-path="url(#clip3_589_388)">
<path d="M69.1504 3.40234L67.2461 7.29883L62.9395 7.91406C62.1777 8.03125 61.8848 8.96875 62.4414 9.52539L65.5176 12.543L64.7852 16.791C64.668 17.5527 65.4883 18.1387 66.1621 17.7871L70 15.7656L73.8086 17.7871C74.4824 18.1387 75.3027 17.5527 75.1855 16.791L74.4531 12.543L77.5293 9.52539C78.0859 8.96875 77.793 8.03125 77.0312 7.91406L72.7539 7.29883L70.8203 3.40234C70.498 2.72852 69.502 2.69922 69.1504 3.40234Z" fill="#FFAD0D"/>
</g>
<g clip-path="url(#clip4_589_388)">
<path d="M97.0312 7.91406L92.7539 7.29883L90.8203 3.40234C90.498 2.72852 89.502 2.69922 89.1504 3.40234L87.2461 7.29883L82.9395 7.91406C82.1777 8.03125 81.8848 8.96875 82.4414 9.52539L85.5176 12.543L84.7852 16.791C84.668 17.5527 85.4883 18.1387 86.1621 17.7871L90 15.7656L93.8086 17.7871C94.4824 18.1387 95.3027 17.5527 95.1855 16.791L94.4531 12.543L97.5293 9.52539C98.0859 8.96875 97.793 8.03125 97.0312 7.91406ZM93.4277 12.1914L94.248 16.9375L90 14.7109L85.7227 16.9375L86.543 12.1914L83.0859 8.85156L87.8613 8.14844L90 3.8125L92.1094 8.14844L96.8848 8.85156L93.4277 12.1914Z" fill="#FFAD0D"/>
</g>
<defs>
<clipPath id="clip0_589_388">
<rect width="20" height="20" fill="white"/>
</clipPath>
<clipPath id="clip1_589_388">
<rect width="20" height="20" fill="white" transform="translate(20)"/>
</clipPath>
<clipPath id="clip2_589_388">
<rect width="20" height="20" fill="white" transform="translate(40)"/>
</clipPath>
<clipPath id="clip3_589_388">
<rect width="20" height="20" fill="white" transform="translate(60)"/>
</clipPath>
<clipPath id="clip4_589_388">
<rect width="20" height="20" fill="white" transform="translate(80)"/>
</clipPath>
</defs>
</svg>
