<svg width="24" height="24" viewBox="0 0 24 24" fill="none" xmlns="http://www.w3.org/2000/svg">
<g clip-path="url(#clip0_1377_193)">
<path d="M18.1875 5.5H16.5V3.67188C16.5 3.46094 16.2891 3.25 16.0781 3.25H14.6719C14.4258 3.25 14.25 3.46094 14.25 3.67188V5.5H9.75V3.67188C9.75 3.46094 9.53906 3.25 9.32812 3.25H7.92188C7.67578 3.25 7.5 3.46094 7.5 3.67188V5.5H5.8125C4.86328 5.5 4.125 6.27344 4.125 7.1875V19.5625C4.125 20.5117 4.86328 21.25 5.8125 21.25H18.1875C19.1016 21.25 19.875 20.5117 19.875 19.5625V7.1875C19.875 6.27344 19.1016 5.5 18.1875 5.5ZM17.9766 19.5625H6.02344C5.88281 19.5625 5.8125 19.4922 5.8125 19.3516V8.875H18.1875V19.3516C18.1875 19.4922 18.082 19.5625 17.9766 19.5625ZM16.1133 12.5312C16.2539 12.3555 16.2539 12.1094 16.1133 11.9336L15.3047 11.125C15.1641 10.9492 14.8828 10.9492 14.707 11.125L10.8047 14.9922L9.25781 13.4453C9.08203 13.2695 8.83594 13.2695 8.66016 13.4453L7.85156 14.2188C7.71094 14.3945 7.71094 14.6758 7.85156 14.8164L10.4883 17.4883C10.6641 17.6641 10.9453 17.6641 11.0859 17.4883L16.1133 12.5312Z" fill="#273142"/>
</g>
<defs>
<clipPath id="clip0_1377_193">
<rect width="24" height="24" fill="white"/>
</clipPath>
</defs>
</svg>
