<svg width="24" height="24" viewBox="0 0 24 24" fill="none" xmlns="http://www.w3.org/2000/svg">
<g clip-path="url(#clip0_1377_187)">
<path d="M12 3.53125C7.18359 3.53125 3.28125 7.43359 3.28125 12.25C3.28125 17.0664 7.18359 20.9688 12 20.9688C16.8164 20.9688 20.7188 17.0664 20.7188 12.25C20.7188 7.43359 16.8164 3.53125 12 3.53125ZM12 19.2812C8.09766 19.2812 4.96875 16.1523 4.96875 12.25C4.96875 8.38281 8.09766 5.21875 12 5.21875C15.8672 5.21875 19.0312 8.38281 19.0312 12.25C19.0312 16.1523 15.8672 19.2812 12 19.2812ZM14.1445 15.625C14.3555 15.7656 14.6016 15.7305 14.7422 15.5195L15.4102 14.6406C15.5508 14.4297 15.5156 14.1836 15.3047 14.043L12.9844 12.3203V7.32812C12.9844 7.11719 12.7734 6.90625 12.5625 6.90625H11.4375C11.1914 6.90625 11.0156 7.11719 11.0156 7.32812V13.1289C11.0156 13.2344 11.0508 13.375 11.1562 13.4453L14.1445 15.625Z" fill="#273142"/>
</g>
<defs>
<clipPath id="clip0_1377_187">
<rect width="24" height="24" fill="white"/>
</clipPath>
</defs>
</svg>
