<svg width="24" height="24" viewBox="0 0 24 24" fill="none" xmlns="http://www.w3.org/2000/svg">
<g clip-path="url(#clip0_584_753)">
<path d="M20.7188 12.25C20.7188 7.43359 16.8164 3.53125 12 3.53125C7.18359 3.53125 3.28125 7.43359 3.28125 12.25C3.28125 16.6094 6.44531 20.2305 10.6289 20.8633V14.7812H8.41406V12.25H10.6289V10.3516C10.6289 8.17188 11.9297 6.94141 13.8984 6.94141C14.8828 6.94141 15.8672 7.11719 15.8672 7.11719V9.26172H14.7773C13.6875 9.26172 13.3359 9.92969 13.3359 10.6328V12.25H15.7617L15.375 14.7812H13.3359V20.8633C17.5195 20.2305 20.7188 16.6094 20.7188 12.25Z" fill="white"/>
</g>
<defs>
<clipPath id="clip0_584_753">
<rect width="24" height="24" fill="white"/>
</clipPath>
</defs>
</svg>
