<svg width="20" height="20" viewBox="0 0 20 20" fill="none" xmlns="http://www.w3.org/2000/svg">
<g clip-path="url(#clip0_1200_455)">
<path d="M17.2656 10.375C17.2656 6.36133 14.0137 3.10938 10 3.10938C5.98633 3.10938 2.73438 6.36133 2.73438 10.375C2.73438 14.0078 5.37109 17.0254 8.85742 17.5527V12.4844H7.01172V10.375H8.85742V8.79297C8.85742 6.97656 9.94141 5.95117 11.582 5.95117C12.4023 5.95117 13.2227 6.09766 13.2227 6.09766V7.88477H12.3145C11.4062 7.88477 11.1133 8.44141 11.1133 9.02734V10.375H13.1348L12.8125 12.4844H11.1133V17.5527C14.5996 17.0254 17.2656 14.0078 17.2656 10.375Z" fill="#1872F2"/>
</g>
<defs>
<clipPath id="clip0_1200_455">
<rect width="20" height="20" fill="white"/>
</clipPath>
</defs>
</svg>
