<svg width="40" height="40" viewBox="0 0 40 40" fill="none" xmlns="http://www.w3.org/2000/svg">
<g clip-path="url(#clip0_1424_722)">
<path d="M28.7188 20.25C28.7188 15.4336 24.8164 11.5312 20 11.5312C15.1836 11.5312 11.2812 15.4336 11.2812 20.25C11.2812 24.6094 14.4453 28.2305 18.6289 28.8633V22.7812H16.4141V20.25H18.6289V18.3516C18.6289 16.1719 19.9297 14.9414 21.8984 14.9414C22.8828 14.9414 23.8672 15.1172 23.8672 15.1172V17.2617H22.7773C21.6875 17.2617 21.3359 17.9297 21.3359 18.6328V20.25H23.7617L23.375 22.7812H21.3359V28.8633C25.5195 28.2305 28.7188 24.6094 28.7188 20.25Z" fill="#848B98"/>
</g>
<rect x="0.5" y="0.5" width="39" height="39" rx="19.5" stroke="#EDF0F4"/>
<defs>
<clipPath id="clip0_1424_722">
<rect width="24" height="24" fill="white" transform="translate(8 8)"/>
</clipPath>
</defs>
</svg>
