<svg width="20" height="20" viewBox="0 0 20 20" fill="none" xmlns="http://www.w3.org/2000/svg">
<g clip-path="url(#clip0_1437_35)">
<path d="M13.2812 11.3125H6.71875C5.45898 11.3125 4.81445 12.8359 5.72266 13.7148L9.00391 16.9961C9.53125 17.5527 10.4395 17.5527 10.9961 16.9961L14.2773 13.7148C15.1562 12.8359 14.5117 11.3125 13.2812 11.3125ZM10 16L6.71875 12.7188H13.2812L10 16ZM6.71875 9.4375H13.252C14.5117 9.4375 15.1562 7.94336 14.248 7.06445L10.9668 3.7832C10.4395 3.22656 9.53125 3.22656 9.00391 3.7832L5.72266 7.06445C4.84375 7.94336 5.45898 9.4375 6.71875 9.4375ZM10 4.75L13.2812 8.03125H6.71875L10 4.75Z" fill="#4CB147"/>
</g>
<defs>
<clipPath id="clip0_1437_35">
<rect width="20" height="20" fill="white"/>
</clipPath>
</defs>
</svg>
