<svg width="32" height="32" viewBox="0 0 32 32" fill="none" xmlns="http://www.w3.org/2000/svg">
<circle cx="16" cy="16" r="16" fill="#F2FAF2"/>
<g clip-path="url(#clip0_584_1852)">
<path d="M11.5 13.5C12.3203 13.5 13 12.8438 13 12C13 11.1797 12.3203 10.5 11.5 10.5C10.6562 10.5 10 11.1797 10 12C10 12.8438 10.6562 13.5 11.5 13.5ZM11.5 17.6484V17.625C11.5 17.3438 11.6172 17.0859 11.8047 16.8984L13.4922 15.2812C13.5391 15.2578 13.5859 15.2344 13.6328 15.2109C13.4219 14.6484 12.8594 14.2734 12.25 14.25H10.75C9.90625 14.25 9.25 14.9297 9.25 15.75V18C9.25 18.4219 9.57812 18.75 10 18.75V21.75C10 22.1719 10.3281 22.5 10.75 22.5H12.25C12.6484 22.5 13 22.1719 13 21.75V19.5L11.8047 18.3984C11.6172 18.2109 11.4766 17.9297 11.4766 17.6484H11.5ZM20.5 13.5C21.3203 13.5 22 12.8438 22 12C22 11.1797 21.3203 10.5 20.5 10.5C19.6562 10.5 19 11.1797 19 12C19 12.8438 19.6562 13.5 20.5 13.5ZM21.25 14.25H19.75C19.1172 14.2734 18.5547 14.6484 18.3438 15.2109C18.3906 15.2344 18.4375 15.2578 18.4844 15.3047L20.1719 16.8984C20.3594 17.0859 20.5 17.3438 20.5 17.6484C20.5 17.9297 20.3594 18.1875 20.1719 18.3984L19 19.5V21.75C19 22.1719 19.3281 22.5 19.75 22.5H21.25C21.6484 22.5 22 22.1719 22 21.75V18.75C22.3984 18.75 22.75 18.4219 22.75 18V15.75C22.75 14.9297 22.0703 14.25 21.25 14.25ZM19.6562 17.4375L17.9688 15.8438C17.9219 15.7969 17.8516 15.75 17.7812 15.75C17.6172 15.75 17.5 15.8906 17.5 16.0312V16.875H14.5V16.0312C14.5 15.8906 14.3594 15.75 14.2188 15.75C14.125 15.75 14.0547 15.7969 14.0078 15.8438L12.3203 17.4375C12.2734 17.4844 12.25 17.5547 12.25 17.6484C12.25 17.7188 12.2734 17.7891 12.3203 17.8359L14.0078 19.4297C14.0547 19.4766 14.125 19.5234 14.1953 19.5234C14.3594 19.5234 14.4766 19.3828 14.4766 19.2422H14.5V18.375H17.5V19.2422C17.5 19.3828 17.6172 19.5234 17.7812 19.5234C17.8516 19.5234 17.9219 19.4766 17.9688 19.4297L19.6562 17.8359C19.7031 17.7891 19.75 17.7188 19.75 17.6484C19.75 17.5547 19.7031 17.4844 19.6562 17.4375Z" fill="#4CB147"/>
</g>
<defs>
<clipPath id="clip0_584_1852">
<rect width="16" height="16" fill="white" transform="translate(8 8)"/>
</clipPath>
</defs>
</svg>
