<svg width="32" height="32" viewBox="0 0 32 32" fill="none" xmlns="http://www.w3.org/2000/svg">
<circle cx="16" cy="16" r="15.5" fill="white" stroke="#EDF0F4"/>
<g clip-path="url(#clip0_584_529)">
<path d="M21.918 10.7793C20.2188 9.34375 17.6113 9.54883 16 11.2188C14.3594 9.54883 11.752 9.34375 10.0527 10.7793C7.85547 12.625 8.17773 15.6426 9.75977 17.2539L14.8867 22.498C15.1797 22.791 15.5605 22.9668 16 22.9668C16.4102 22.9668 16.791 22.791 17.084 22.498L22.2402 17.2539C23.793 15.6426 24.1152 12.625 21.918 10.7793ZM21.2148 16.2578L16.0879 21.502C16.0293 21.5605 15.9707 21.5605 15.8828 21.502L10.7559 16.2578C9.67188 15.1738 9.4668 13.123 10.9609 11.8633C12.1035 10.8965 13.8613 11.043 14.9746 12.1562L16 13.2109L17.0254 12.1562C18.1094 11.043 19.8672 10.8965 21.0098 11.834C22.5039 13.123 22.2988 15.1738 21.2148 16.2578Z" fill="#848B98"/>
</g>
<defs>
<clipPath id="clip0_584_529">
<rect width="20" height="20" fill="white" transform="translate(6 6)"/>
</clipPath>
</defs>
</svg>
