<svg width="24" height="24" viewBox="0 0 24 24" fill="none" xmlns="http://www.w3.org/2000/svg">
<rect width="24" height="24" rx="12" fill="#4CB147"/>
<path d="M11.92 17.112C11.2573 17.112 10.66 16.9953 10.128 16.762C9.596 16.5193 9.176 16.1647 8.868 15.698C8.56 15.2313 8.406 14.6713 8.406 14.018L9.652 13.948C9.652 14.564 9.862 15.0447 10.282 15.39C10.7113 15.7353 11.2713 15.908 11.962 15.908C12.606 15.908 13.1333 15.7493 13.544 15.432C13.9547 15.1053 14.16 14.648 14.16 14.06C14.16 13.3787 13.9033 12.9307 13.39 12.716C12.886 12.5013 12.242 12.394 11.458 12.394V11.358C12.13 11.3673 12.662 11.246 13.054 10.994C13.446 10.7327 13.642 10.3407 13.642 9.818C13.642 9.35133 13.4787 8.98733 13.152 8.726C12.8253 8.46467 12.4053 8.334 11.892 8.334C11.3507 8.334 10.9213 8.48333 10.604 8.782C10.2867 9.08067 10.1233 9.482 10.114 9.986L8.882 9.902C8.882 9.342 9.01733 8.852 9.288 8.432C9.55867 8.012 9.92267 7.69 10.38 7.466C10.8467 7.242 11.3647 7.13 11.934 7.13C12.4847 7.13 12.984 7.23733 13.432 7.452C13.8893 7.65733 14.2487 7.956 14.51 8.348C14.7713 8.73067 14.902 9.17867 14.902 9.692C14.902 10.2427 14.7433 10.686 14.426 11.022C14.118 11.358 13.7213 11.5913 13.236 11.722C13.8893 11.89 14.412 12.17 14.804 12.562C15.2053 12.954 15.406 13.472 15.406 14.116C15.406 14.7413 15.2473 15.2827 14.93 15.74C14.622 16.188 14.202 16.5287 13.67 16.762C13.1473 16.9953 12.564 17.112 11.92 17.112Z" fill="white"/>
</svg>
