<svg width="24" height="24" viewBox="0 0 24 24" fill="none" xmlns="http://www.w3.org/2000/svg">
<rect x="0.5" y="0.5" width="23" height="23" rx="11.5" fill="white"/>
<path d="M15.322 15.838V17H8.784V15.908C8.97067 15.7773 9.11067 15.6747 9.204 15.6C10.0347 15.0213 10.758 14.4753 11.374 13.962C11.99 13.4487 12.5313 12.8607 12.998 12.198C13.4647 11.5353 13.698 10.8587 13.698 10.168C13.698 9.61733 13.544 9.17867 13.236 8.852C12.9373 8.52533 12.5033 8.362 11.934 8.362C11.2993 8.362 10.8187 8.57667 10.492 9.006C10.1747 9.426 10.0067 9.972 9.988 10.644L8.77 10.546C8.77 9.93 8.89133 9.36533 9.134 8.852C9.386 8.32933 9.75467 7.914 10.24 7.606C10.7253 7.298 11.2993 7.144 11.962 7.144C12.55 7.144 13.068 7.27 13.516 7.522C13.964 7.76467 14.3093 8.11467 14.552 8.572C14.804 9.02 14.93 9.54267 14.93 10.14C14.93 10.868 14.7433 11.5587 14.37 12.212C14.006 12.8653 13.5253 13.472 12.928 14.032C12.3307 14.592 11.5933 15.194 10.716 15.838H15.322Z" fill="#4CB147"/>
<rect x="0.5" y="0.5" width="23" height="23" rx="11.5" stroke="#4CB147"/>
</svg>
