<svg width="20" height="20" viewBox="0 0 20 20" fill="none" xmlns="http://www.w3.org/2000/svg">
<g clip-path="url(#clip0_1607_1095)">
<path d="M10 3.10938C5.98633 3.10938 2.73438 6.39062 2.73438 10.375C2.73438 14.3887 5.98633 17.6406 10 17.6406C13.9844 17.6406 17.2656 14.3887 17.2656 10.375C17.2656 6.39062 13.9844 3.10938 10 3.10938ZM10 16.2344C6.74805 16.2344 4.14062 13.627 4.14062 10.375C4.14062 7.15234 6.74805 4.51562 10 4.51562C13.2227 4.51562 15.8594 7.15234 15.8594 10.375C15.8594 13.627 13.2227 16.2344 10 16.2344ZM10 6.33203C9.29688 6.33203 8.76953 6.88867 8.76953 7.5625C8.76953 8.26562 9.29688 8.79297 10 8.79297C10.6738 8.79297 11.2305 8.26562 11.2305 7.5625C11.2305 6.88867 10.6738 6.33203 10 6.33203ZM11.6406 13.7734V13.0703C11.6406 12.8945 11.4648 12.7188 11.2891 12.7188H10.9375V9.78906C10.9375 9.61328 10.7617 9.4375 10.5859 9.4375H8.71094C8.50586 9.4375 8.35938 9.61328 8.35938 9.78906V10.4922C8.35938 10.6973 8.50586 10.8438 8.71094 10.8438H9.0625V12.7188H8.71094C8.50586 12.7188 8.35938 12.8945 8.35938 13.0703V13.7734C8.35938 13.9785 8.50586 14.125 8.71094 14.125H11.2891C11.4648 14.125 11.6406 13.9785 11.6406 13.7734Z" fill="#B7BBC2"/>
</g>
<defs>
<clipPath id="clip0_1607_1095">
<rect width="20" height="20" fill="white"/>
</clipPath>
</defs>
</svg>
