<svg width="16" height="16" viewBox="0 0 16 16" fill="none" xmlns="http://www.w3.org/2000/svg">
<g clip-path="url(#clip0_584_1930)">
<path d="M8 2.6875C4.78906 2.6875 2.1875 5.3125 2.1875 8.5C2.1875 11.7109 4.78906 14.3125 8 14.3125C11.1875 14.3125 13.8125 11.7109 13.8125 8.5C13.8125 5.3125 11.1875 2.6875 8 2.6875ZM8 13.1875C5.39844 13.1875 3.3125 11.1016 3.3125 8.5C3.3125 5.92188 5.39844 3.8125 8 3.8125C10.5781 3.8125 12.6875 5.92188 12.6875 8.5C12.6875 11.1016 10.5781 13.1875 8 13.1875ZM8 5.26562C7.4375 5.26562 7.01562 5.71094 7.01562 6.25C7.01562 6.8125 7.4375 7.23438 8 7.23438C8.53906 7.23438 8.98438 6.8125 8.98438 6.25C8.98438 5.71094 8.53906 5.26562 8 5.26562ZM9.3125 11.2188V10.6562C9.3125 10.5156 9.17188 10.375 9.03125 10.375H8.75V8.03125C8.75 7.89062 8.60938 7.75 8.46875 7.75H6.96875C6.80469 7.75 6.6875 7.89062 6.6875 8.03125V8.59375C6.6875 8.75781 6.80469 8.875 6.96875 8.875H7.25V10.375H6.96875C6.80469 10.375 6.6875 10.5156 6.6875 10.6562V11.2188C6.6875 11.3828 6.80469 11.5 6.96875 11.5H9.03125C9.17188 11.5 9.3125 11.3828 9.3125 11.2188Z" fill="#B7BBC2"/>
</g>
<defs>
<clipPath id="clip0_584_1930">
<rect width="16" height="16" fill="white"/>
</clipPath>
</defs>
</svg>
