<svg width="24" height="24" viewBox="0 0 24 24" fill="none" xmlns="http://www.w3.org/2000/svg">
<g clip-path="url(#clip0_584_755)">
<path d="M12 8.20703C9.75 8.20703 7.95703 10.0352 7.95703 12.25C7.95703 14.5 9.75 16.293 12 16.293C14.2148 16.293 16.043 14.5 16.043 12.25C16.043 10.0352 14.2148 8.20703 12 8.20703ZM12 14.8867C10.5586 14.8867 9.36328 13.7266 9.36328 12.25C9.36328 10.8086 10.5234 9.64844 12 9.64844C13.4414 9.64844 14.6016 10.8086 14.6016 12.25C14.6016 13.7266 13.4414 14.8867 12 14.8867ZM17.1328 8.06641C17.1328 7.53906 16.7109 7.11719 16.1836 7.11719C15.6562 7.11719 15.2344 7.53906 15.2344 8.06641C15.2344 8.59375 15.6562 9.01562 16.1836 9.01562C16.7109 9.01562 17.1328 8.59375 17.1328 8.06641ZM19.8047 9.01562C19.7344 7.75 19.4531 6.625 18.5391 5.71094C17.625 4.79688 16.5 4.51562 15.2344 4.44531C13.9336 4.375 10.0312 4.375 8.73047 4.44531C7.46484 4.51562 6.375 4.79688 5.42578 5.71094C4.51172 6.625 4.23047 7.75 4.16016 9.01562C4.08984 10.3164 4.08984 14.2188 4.16016 15.5195C4.23047 16.7852 4.51172 17.875 5.42578 18.8242C6.375 19.7383 7.46484 20.0195 8.73047 20.0898C10.0312 20.1602 13.9336 20.1602 15.2344 20.0898C16.5 20.0195 17.625 19.7383 18.5391 18.8242C19.4531 17.875 19.7344 16.7852 19.8047 15.5195C19.875 14.2188 19.875 10.3164 19.8047 9.01562ZM18.1172 16.8906C17.8711 17.5938 17.3086 18.1211 16.6406 18.4023C15.5859 18.8242 13.125 18.7188 12 18.7188C10.8398 18.7188 8.37891 18.8242 7.35938 18.4023C6.65625 18.1211 6.12891 17.5938 5.84766 16.8906C5.42578 15.8711 5.53125 13.4102 5.53125 12.25C5.53125 11.125 5.42578 8.66406 5.84766 7.60938C6.12891 6.94141 6.65625 6.41406 7.35938 6.13281C8.37891 5.71094 10.8398 5.81641 12 5.81641C13.125 5.81641 15.5859 5.71094 16.6406 6.13281C17.3086 6.37891 17.8359 6.94141 18.1172 7.60938C18.5391 8.66406 18.4336 11.125 18.4336 12.25C18.4336 13.4102 18.5391 15.8711 18.1172 16.8906Z" fill="white"/>
</g>
<defs>
<clipPath id="clip0_584_755">
<rect width="24" height="24" fill="white"/>
</clipPath>
</defs>
</svg>
