<svg width="154" height="40" viewBox="0 0 154 40" fill="none" xmlns="http://www.w3.org/2000/svg">
<path d="M2.46399 31V8.69604H8.67199C12.32 8.69604 15.1467 9.68804 17.152 11.672C19.1573 13.6347 20.16 16.4187 20.16 20.024C20.16 23.5653 19.168 26.2853 17.184 28.184C15.2213 30.0613 12.3733 31 8.63999 31H2.46399ZM8.35199 28.28C11.2747 28.28 13.472 27.6293 14.944 26.328C16.416 25.0053 17.152 22.872 17.152 19.928C17.152 14.2533 14.304 11.416 8.60799 11.416H5.40799V28.28H8.35199ZM29.8178 31.256C28.3458 31.256 27.0231 30.9147 25.8498 30.232C24.6764 29.528 23.7591 28.5573 23.0978 27.32C22.4364 26.0827 22.1058 24.6747 22.1058 23.096C22.1058 21.5173 22.4364 20.12 23.0978 18.904C23.7591 17.6667 24.6658 16.7067 25.8178 16.024C26.9911 15.32 28.3244 14.968 29.8178 14.968C31.2898 14.968 32.6124 15.32 33.7858 16.024C34.9591 16.7067 35.8764 17.6667 36.5378 18.904C37.1991 20.1413 37.5298 21.5387 37.5298 23.096C37.5298 24.6533 37.1991 26.0507 36.5378 27.288C35.8764 28.5253 34.9591 29.496 33.7858 30.2C32.6124 30.904 31.2898 31.256 29.8178 31.256ZM29.8178 28.76C31.2898 28.76 32.4631 28.248 33.3378 27.224C34.2338 26.2 34.6818 24.824 34.6818 23.096C34.6818 21.368 34.2338 20.0027 33.3378 19C32.4631 17.976 31.2898 17.464 29.8178 17.464C28.3244 17.464 27.1404 17.976 26.2658 19C25.4124 20.0027 24.9858 21.368 24.9858 23.096C24.9858 24.824 25.4231 26.2 26.2978 27.224C27.1724 28.248 28.3458 28.76 29.8178 28.76ZM46.944 31.256C45.408 31.256 44.0853 30.8933 42.976 30.168C41.8667 29.4213 41.024 28.44 40.448 27.224C39.872 25.9867 39.584 24.6213 39.584 23.128C39.584 21.6987 39.8613 20.3653 40.416 19.128C40.9707 17.8907 41.792 16.888 42.88 16.12C43.9893 15.352 45.3333 14.968 46.912 14.968C48.4267 14.968 49.7493 15.352 50.88 16.12C52.0107 16.8667 52.864 17.9653 53.44 19.416L50.944 20.408C50.5813 19.4907 50.0587 18.776 49.376 18.264C48.6933 17.7307 47.872 17.464 46.912 17.464C45.4613 17.464 44.352 18.0187 43.584 19.128C42.8373 20.216 42.464 21.5493 42.464 23.128C42.464 24.7067 42.8373 26.04 43.584 27.128C44.352 28.216 45.472 28.76 46.944 28.76C47.9253 28.76 48.7467 28.504 49.408 27.992C50.0693 27.48 50.56 26.7547 50.88 25.816L53.376 26.808C52.864 28.2587 52.0427 29.368 50.912 30.136C49.8027 30.8827 48.48 31.256 46.944 31.256ZM63.3897 17.464H59.4857V26.648C59.4857 27.352 59.6244 27.9173 59.9017 28.344C60.1791 28.7493 60.7017 28.952 61.4697 28.952C62.0031 28.952 62.6431 28.8347 63.3897 28.6V30.84C62.5364 31.1173 61.6724 31.256 60.7977 31.256C59.5391 31.256 58.5364 30.9147 57.7897 30.232C57.0431 29.528 56.6697 28.4187 56.6697 26.904V17.464H54.0457V15.224H56.6697V11.064L59.4857 9.46404V15.224H63.3897V17.464Z" fill="white"/>
<path d="M76.936 31.4801C74.8453 31.4801 72.9893 31.0001 71.368 30.0401C69.768 29.0588 68.52 27.6934 67.624 25.9441C66.7493 24.1948 66.312 22.1681 66.312 19.8641C66.312 17.5601 66.7493 15.5334 67.624 13.7841C68.52 12.0134 69.768 10.6481 71.368 9.68806C72.9893 8.70673 74.8453 8.21606 76.936 8.21606C79.048 8.21606 80.904 8.70673 82.504 9.68806C84.104 10.6481 85.3413 12.0134 86.216 13.7841C87.112 15.5334 87.56 17.5601 87.56 19.8641C87.56 22.1681 87.112 24.1948 86.216 25.9441C85.32 27.6934 84.072 29.0588 82.472 30.0401C80.872 31.0001 79.0267 31.4801 76.936 31.4801ZM76.936 27.8001C78.3013 27.8001 79.4853 27.4801 80.488 26.8401C81.512 26.1788 82.3013 25.2508 82.856 24.0561C83.4107 22.8614 83.688 21.4641 83.688 19.8641C83.688 17.4108 83.08 15.4694 81.864 14.0401C80.648 12.6108 79.0053 11.8961 76.936 11.8961C74.8667 11.8961 73.224 12.6108 72.008 14.0401C70.792 15.4481 70.184 17.3894 70.184 19.8641C70.184 22.3174 70.792 24.2588 72.008 25.6881C73.224 27.0961 74.8667 27.8001 76.936 27.8001ZM98.0628 14.9041C99.8974 14.9041 101.316 15.4161 102.319 16.4401C103.321 17.4428 103.823 18.8828 103.823 20.7601V31.0001H100.111V22.1361C100.111 20.7708 99.8548 19.7681 99.3428 19.1281C98.8521 18.4668 98.0841 18.1361 97.0388 18.1361C95.8441 18.1361 94.9481 18.5628 94.3508 19.4161C93.7748 20.2694 93.4868 21.5921 93.4868 23.3841V31.0001H89.7748V15.2241H93.4868V16.9201C94.5108 15.5761 96.0361 14.9041 98.0628 14.9041ZM110.118 31.3201C109.008 31.3201 108.123 30.9894 107.462 30.3281C106.8 29.6454 106.47 28.6321 106.47 27.2881V8.69606H110.15V26.5521C110.15 27.4481 110.555 27.8961 111.366 27.8961C111.643 27.8961 112.038 27.8214 112.55 27.6721V30.8401C111.696 31.1601 110.886 31.3201 110.118 31.3201ZM118.349 31.0001H114.669V15.2241H118.349V31.0001ZM118.413 12.6961H114.605V8.69606H118.413V12.6961ZM129.777 14.9041C131.611 14.9041 133.03 15.4161 134.033 16.4401C135.035 17.4428 135.537 18.8828 135.537 20.7601V31.0001H131.825V22.1361C131.825 20.7708 131.569 19.7681 131.057 19.1281C130.566 18.4668 129.798 18.1361 128.753 18.1361C127.558 18.1361 126.662 18.5628 126.065 19.4161C125.489 20.2694 125.201 21.5921 125.201 23.3841V31.0001H121.488V15.2241H125.201V16.9201C126.225 15.5761 127.75 14.9041 129.777 14.9041ZM152.357 22.8721C152.357 23.2774 152.325 23.7681 152.261 24.3441H141.381C141.445 25.4534 141.818 26.3388 142.501 27.0001C143.184 27.6401 144.144 27.9601 145.381 27.9601C146.149 27.9601 146.842 27.8321 147.461 27.5761C148.101 27.2988 148.698 26.8508 149.253 26.2321L151.813 28.5041C150.96 29.4428 150 30.1468 148.933 30.6161C147.888 31.0854 146.704 31.3201 145.381 31.3201C143.653 31.3201 142.213 30.9574 141.061 30.2321C139.909 29.4854 139.056 28.5041 138.501 27.2881C137.946 26.0508 137.669 24.6854 137.669 23.1921C137.669 21.7414 137.936 20.3868 138.469 19.1281C139.024 17.8694 139.856 16.8561 140.965 16.0881C142.096 15.2988 143.482 14.9041 145.125 14.9041C146.682 14.9041 148.005 15.2561 149.093 15.9601C150.181 16.6641 150.992 17.6241 151.525 18.8401C152.08 20.0348 152.357 21.3788 152.357 22.8721ZM148.805 21.4641C148.826 20.4828 148.496 19.6614 147.813 19.0001C147.13 18.3388 146.213 18.0081 145.061 18.0081C143.952 18.0081 143.077 18.3494 142.437 19.0321C141.818 19.6934 141.445 20.5041 141.317 21.4641H148.805Z" fill="#4CB147"/>
</svg>
