<svg width="24" height="24" viewBox="0 0 24 24" fill="none" xmlns="http://www.w3.org/2000/svg">
<g clip-path="url(#clip0_584_164)">
<path d="M14.4961 7.32812L13.793 8.03125C13.6523 8.20703 13.6523 8.45312 13.8281 8.62891L16.6406 11.3359H4.54688C4.30078 11.3359 4.125 11.5469 4.125 11.7578V12.7422C4.125 12.9883 4.30078 13.1641 4.54688 13.1641H16.6406L13.8281 15.9062C13.6523 16.082 13.6523 16.3281 13.793 16.5039L14.4961 17.207C14.6719 17.3477 14.918 17.3477 15.0938 17.207L19.7344 12.5664C19.875 12.3906 19.875 12.1445 19.7344 11.9688L15.0938 7.32812C14.918 7.1875 14.6719 7.1875 14.4961 7.32812Z" fill="#4CB147"/>
</g>
<defs>
<clipPath id="clip0_584_164">
<rect width="24" height="24" fill="white"/>
</clipPath>
</defs>
</svg>
