<svg width="24" height="24" viewBox="0 0 24 24" fill="none" xmlns="http://www.w3.org/2000/svg">
<g clip-path="url(#clip0_1377_276)">
<path d="M12 3.25C9.1875 3.25 6.9375 5.53516 6.9375 8.3125C6.9375 10.8438 8.73047 12.918 11.1562 13.3047V20.2656L11.7188 21.1094C11.8594 21.3203 12.1055 21.3203 12.2461 21.1094L12.8438 20.2656V13.3047C15.2344 12.918 17.0625 10.8438 17.0625 8.3125C17.0625 5.53516 14.7773 3.25 12 3.25ZM12 11.6875C10.1367 11.6875 8.625 10.1758 8.625 8.3125C8.625 6.48438 10.1367 4.9375 12 4.9375C13.8281 4.9375 15.375 6.48438 15.375 8.3125C15.375 10.1758 13.8281 11.6875 12 11.6875ZM12 6.0625C10.7344 6.0625 9.75 7.08203 9.75 8.3125C9.75 8.62891 9.99609 8.875 10.3125 8.875C10.5938 8.875 10.875 8.62891 10.875 8.3125C10.875 7.71484 11.3672 7.1875 12 7.1875C12.2812 7.1875 12.5625 6.94141 12.5625 6.625C12.5625 6.34375 12.2812 6.0625 12 6.0625Z" fill="#273142"/>
</g>
<defs>
<clipPath id="clip0_1377_276">
<rect width="24" height="24" fill="white"/>
</clipPath>
</defs>
</svg>
