<svg width="32" height="32" viewBox="0 0 32 32" fill="none" xmlns="http://www.w3.org/2000/svg">
<rect width="32" height="32" rx="16" fill="#FAECEC"/>
<g clip-path="url(#clip0_589_131)">
<path d="M23.207 14.4707C22.5332 14.998 21.6836 15.6426 18.6953 17.8105C18.1094 18.25 17.0254 19.2168 16 19.2168C14.9453 19.2168 13.8906 18.25 13.2754 17.8105C10.2871 15.6426 9.4375 14.998 8.76367 14.4707C8.64648 14.3828 8.5 14.4707 8.5 14.6172V20.5938C8.5 21.3848 9.11523 22 9.90625 22H22.0938C22.8555 22 23.5 21.3848 23.5 20.5938V14.6172C23.5 14.4707 23.3242 14.3828 23.207 14.4707ZM16 18.25C16.6738 18.2793 17.6406 17.4004 18.1387 17.0488C22.0352 14.2363 22.3281 13.9727 23.207 13.2695C23.3828 13.1523 23.5 12.9473 23.5 12.7129V12.1562C23.5 11.3945 22.8555 10.75 22.0938 10.75H9.90625C9.11523 10.75 8.5 11.3945 8.5 12.1562V12.7129C8.5 12.9473 8.58789 13.1523 8.76367 13.2695C9.64258 13.9727 9.93555 14.2363 13.832 17.0488C14.3301 17.4004 15.2969 18.2793 16 18.25Z" fill="#D45A5A"/>
</g>
<defs>
<clipPath id="clip0_589_131">
<rect width="20" height="20" fill="white" transform="translate(6 6)"/>
</clipPath>
</defs>
</svg>
