<svg width="32" height="32" viewBox="0 0 32 32" fill="none" xmlns="http://www.w3.org/2000/svg">
<rect width="32" height="32" rx="16" fill="#FAECEC"/>
<g clip-path="url(#clip0_589_130)">
<path d="M22.9434 9.60742L19.8965 8.9043C19.5742 8.81641 19.2227 8.99219 19.0762 9.31445L17.6699 12.5957C17.5527 12.8887 17.6406 13.2109 17.875 13.416L19.6621 14.8809C18.6074 17.1074 16.7617 18.9824 14.4766 20.0664L13.0117 18.2793C12.8066 18.0449 12.4844 17.957 12.1914 18.0742L8.91016 19.4805C8.58789 19.627 8.44141 19.9785 8.5 20.3008L9.20312 23.3477C9.29102 23.6699 9.55469 23.875 9.90625 23.875C17.4062 23.875 23.5 17.8105 23.5 10.2812C23.5 9.95898 23.2656 9.69531 22.9434 9.60742Z" fill="#D45A5A"/>
</g>
<defs>
<clipPath id="clip0_589_130">
<rect width="20" height="20" fill="white" transform="translate(6 6)"/>
</clipPath>
</defs>
</svg>
