<svg width="16" height="11" viewBox="0 0 16 11" fill="none" xmlns="http://www.w3.org/2000/svg">
<path d="M10.4961 0.328125L9.79297 1.03125C9.65234 1.20703 9.65234 1.45312 9.82812 1.62891L12.6406 4.33594H0.546875C0.300781 4.33594 0.125 4.54688 0.125 4.75781V5.74219C0.125 5.98828 0.300781 6.16406 0.546875 6.16406H12.6406L9.82812 8.90625C9.65234 9.08203 9.65234 9.32812 9.79297 9.50391L10.4961 10.207C10.6719 10.3477 10.918 10.3477 11.0938 10.207L15.7344 5.56641C15.875 5.39062 15.875 5.14453 15.7344 4.96875L11.0938 0.328125C10.918 0.1875 10.6719 0.1875 10.4961 0.328125Z" fill="#101825"/>
</svg>
