<svg width="24" height="24" viewBox="0 0 24 24" fill="none" xmlns="http://www.w3.org/2000/svg">
<g clip-path="url(#clip0_584_757)">
<path d="M19.1367 8.59375C19.8398 8.06641 20.4727 7.43359 20.9648 6.69531C20.332 6.97656 19.5938 7.1875 18.8555 7.25781C19.6289 6.80078 20.1914 6.09766 20.4727 5.21875C19.7695 5.64062 18.9609 5.95703 18.1523 6.13281C17.4492 5.39453 16.5 4.97266 15.4453 4.97266C13.4062 4.97266 11.7539 6.625 11.7539 8.66406C11.7539 8.94531 11.7891 9.22656 11.8594 9.50781C8.80078 9.33203 6.05859 7.85547 4.23047 5.64062C3.91406 6.16797 3.73828 6.80078 3.73828 7.50391C3.73828 8.76953 4.37109 9.89453 5.39062 10.5625C4.79297 10.5273 4.19531 10.3867 3.70312 10.1055V10.1406C3.70312 11.9336 4.96875 13.4102 6.65625 13.7617C6.375 13.832 6.02344 13.9023 5.70703 13.9023C5.46094 13.9023 5.25 13.8672 5.00391 13.832C5.46094 15.3086 6.83203 16.3633 8.44922 16.3984C7.18359 17.3828 5.60156 17.9805 3.87891 17.9805C3.5625 17.9805 3.28125 17.9453 3 17.9102C4.61719 18.9648 6.55078 19.5625 8.66016 19.5625C15.4453 19.5625 19.1367 13.9727 19.1367 9.08594C19.1367 8.91016 19.1367 8.76953 19.1367 8.59375Z" fill="white"/>
</g>
<defs>
<clipPath id="clip0_584_757">
<rect width="24" height="24" fill="white"/>
</clipPath>
</defs>
</svg>
