<svg width="20" height="20" viewBox="0 0 20 20" fill="none" xmlns="http://www.w3.org/2000/svg">
<g clip-path="url(#clip0_584_1718)">
<path d="M10 5.92188C8.44727 5.92188 7.1875 7.18164 7.1875 8.73438C7.1875 10.2871 8.44727 11.5469 10 11.5469C11.5527 11.5469 12.8125 10.2871 12.8125 8.73438C12.8125 7.18164 11.5527 5.92188 10 5.92188ZM10 10.1406C9.20898 10.1406 8.59375 9.52539 8.59375 8.73438C8.59375 7.97266 9.20898 7.32812 10 7.32812C10.7617 7.32812 11.4062 7.97266 11.4062 8.73438C11.4062 9.52539 10.7617 10.1406 10 10.1406ZM10 3.10938C5.98633 3.10938 2.73438 6.36133 2.73438 10.375C2.73438 14.3887 5.98633 17.6406 10 17.6406C14.0137 17.6406 17.2656 14.3887 17.2656 10.375C17.2656 6.36133 14.0137 3.10938 10 3.10938ZM10 16.2344C8.53516 16.2344 7.1875 15.707 6.16211 14.8281C6.60156 14.1543 7.36328 13.6855 8.21289 13.6855C8.82812 13.8613 9.41406 13.9492 10 13.9492C10.5566 13.9492 11.1426 13.8613 11.7578 13.6855C12.6074 13.7148 13.3691 14.1543 13.8086 14.8281C12.7832 15.707 11.4355 16.2344 10 16.2344ZM14.7461 13.7734C14.043 12.8652 12.9297 12.25 11.6699 12.25C11.377 12.25 10.9082 12.543 10 12.543C9.0625 12.543 8.59375 12.25 8.30078 12.25C7.04102 12.25 5.92773 12.8652 5.22461 13.7734C4.52148 12.8359 4.14062 11.6641 4.14062 10.375C4.14062 7.15234 6.74805 4.51562 10 4.51562C13.2227 4.51562 15.8594 7.15234 15.8594 10.375C15.8594 11.6641 15.4492 12.8359 14.7461 13.7734Z" fill="#4CB147"/>
</g>
<defs>
<clipPath id="clip0_584_1718">
<rect width="20" height="20" fill="white"/>
</clipPath>
</defs>
</svg>
