<svg width="492" height="24" viewBox="0 0 492 24" fill="none" xmlns="http://www.w3.org/2000/svg">
<rect width="492" height="24" fill="white"/>
<rect y="12" width="492" height="1" fill="#EDF0F4"/>
<rect x="213" width="66" height="24" fill="white"/>
<path d="M235.546 16H234.814L232.39 10.084H233.338L235.174 14.896L237.022 10.084H237.958L235.546 16ZM240.987 9.988C241.571 9.988 242.067 10.12 242.475 10.384C242.891 10.648 243.203 11.008 243.411 11.464C243.619 11.92 243.723 12.432 243.723 13C243.723 13.568 243.619 14.088 243.411 14.56C243.211 15.024 242.911 15.396 242.511 15.676C242.119 15.956 241.643 16.096 241.083 16.096C240.507 16.096 240.023 15.968 239.631 15.712C239.247 15.448 238.963 15.104 238.779 14.68C238.595 14.256 238.503 13.804 238.503 13.324C238.503 13.14 238.515 12.964 238.539 12.796H242.859C242.843 12.164 242.667 11.668 242.331 11.308C242.003 10.948 241.551 10.768 240.975 10.768C240.623 10.768 240.315 10.828 240.051 10.948C239.795 11.06 239.539 11.252 239.283 11.524L238.683 10.984C239.011 10.632 239.355 10.38 239.715 10.228C240.083 10.068 240.507 9.988 240.987 9.988ZM241.095 15.364C241.615 15.364 242.027 15.184 242.331 14.824C242.643 14.464 242.823 14.012 242.871 13.468H239.331V13.588C239.323 13.884 239.379 14.168 239.499 14.44C239.627 14.712 239.823 14.936 240.087 15.112C240.359 15.28 240.695 15.364 241.095 15.364ZM250.213 18.448H249.277L250.261 15.916L247.777 10.084H248.713L250.729 14.908L252.505 10.084H253.453L250.213 18.448ZM256.704 9.988C257.472 9.988 258.06 10.192 258.468 10.6C258.884 11 259.092 11.572 259.092 12.316V16H258.3L258.252 15.064C258.036 15.408 257.748 15.668 257.388 15.844C257.028 16.012 256.632 16.096 256.2 16.096C255.56 16.096 255.048 15.928 254.664 15.592C254.288 15.256 254.1 14.812 254.1 14.26C254.1 13.668 254.332 13.22 254.796 12.916C255.22 12.652 255.796 12.52 256.524 12.52H258.24V12.316C258.24 11.804 258.104 11.416 257.832 11.152C257.568 10.88 257.176 10.744 256.656 10.744C256.296 10.744 255.976 10.816 255.696 10.96C255.416 11.096 255.144 11.324 254.88 11.644L254.256 11.116C254.872 10.364 255.688 9.988 256.704 9.988ZM256.272 15.388C256.64 15.388 256.972 15.308 257.268 15.148C257.572 14.98 257.808 14.752 257.976 14.464C258.152 14.168 258.24 13.84 258.24 13.48V13.204H256.632C256.096 13.204 255.688 13.288 255.408 13.456C255.112 13.632 254.964 13.904 254.964 14.272C254.964 14.608 255.084 14.88 255.324 15.088C255.564 15.288 255.88 15.388 256.272 15.388Z" fill="#B7BBC2"/>
</svg>
