<svg width="24" height="24" viewBox="0 0 24 24" fill="none" xmlns="http://www.w3.org/2000/svg">
<g clip-path="url(#clip0_1377_45)">
<path d="M20.9648 6.625C20.7539 6.625 20.543 6.69531 20.332 6.83594L16.5 9.26172V7.1875C16.5 6.27344 15.6562 5.5 14.6719 5.5H3.66797C2.68359 5.5 1.875 6.27344 1.875 7.1875V17.3477C1.875 18.2617 2.68359 19 3.66797 19H14.6719C15.6562 19 16.5 18.2617 16.5 17.3477V15.2734L20.332 17.6992C20.543 17.8398 20.7539 17.875 20.9648 17.875C21.5625 17.875 22.125 17.418 22.125 16.7852V7.75C22.125 7.08203 21.5625 6.625 20.9648 6.625ZM14.8125 10.2812V17.2773C14.7773 17.3125 14.7422 17.3125 14.6719 17.3125H3.66797C3.59766 17.3125 3.5625 17.3125 3.5625 17.2773V7.25781C3.5625 7.22266 3.59766 7.1875 3.66797 7.1875H14.6719C14.7422 7.1875 14.7773 7.22266 14.8125 7.25781V10.2812ZM20.4375 15.7656L16.5 13.3047V11.2305L20.4375 8.76953V15.7656Z" fill="#273142"/>
</g>
<defs>
<clipPath id="clip0_1377_45">
<rect width="24" height="24" fill="white"/>
</clipPath>
</defs>
</svg>
