<svg width="10" height="11" viewBox="0 0 10 11" fill="none" xmlns="http://www.w3.org/2000/svg">
<path d="M6.37695 5.375L9.54102 2.24023C9.7168 2.06445 9.7168 1.74219 9.54102 1.56641L8.80859 0.833984C8.63281 0.658203 8.31055 0.658203 8.13477 0.833984L5 3.99805L1.83594 0.833984C1.66016 0.658203 1.33789 0.658203 1.16211 0.833984L0.429688 1.56641C0.253906 1.74219 0.253906 2.06445 0.429688 2.24023L3.59375 5.375L0.429688 8.53906C0.253906 8.71484 0.253906 9.03711 0.429688 9.21289L1.16211 9.94531C1.33789 10.1211 1.66016 10.1211 1.83594 9.94531L5 6.78125L8.13477 9.94531C8.31055 10.1211 8.63281 10.1211 8.80859 9.94531L9.54102 9.21289C9.7168 9.03711 9.7168 8.71484 9.54102 8.53906L6.37695 5.375Z" fill="white"/>
</svg>
