<svg width="36" height="36" viewBox="0 0 36 36" fill="none" xmlns="http://www.w3.org/2000/svg">
<circle cx="18" cy="18" r="18" fill="#EDF0F4"/>
<g clip-path="url(#clip0_1555_986)">
<path d="M19.1602 18.25L22.7812 14.6641L23.5195 13.9258C23.625 13.8203 23.625 13.6445 23.5195 13.5039L22.7461 12.7305C22.6055 12.625 22.4297 12.625 22.3242 12.7305L18 17.0898L13.6406 12.7305C13.5352 12.625 13.3594 12.625 13.2188 12.7305L12.4453 13.5039C12.3398 13.6445 12.3398 13.8203 12.4453 13.9258L16.8047 18.25L12.4453 22.6094C12.3398 22.7148 12.3398 22.8906 12.4453 23.0312L13.2188 23.8047C13.3594 23.9102 13.5352 23.9102 13.6406 23.8047L18 19.4453L21.5859 23.0664L22.3242 23.8047C22.4297 23.9102 22.6055 23.9102 22.7461 23.8047L23.5195 23.0312C23.625 22.8906 23.625 22.7148 23.5195 22.6094L19.1602 18.25Z" fill="#101825"/>
</g>
<defs>
<clipPath id="clip0_1555_986">
<rect width="24" height="24" fill="white" transform="translate(6 6)"/>
</clipPath>
</defs>
</svg>
