<svg width="32" height="32" viewBox="0 0 32 32" fill="none" xmlns="http://www.w3.org/2000/svg">
<rect width="32" height="32" rx="16" fill="#4CB147"/>
<g clip-path="url(#clip0_1298_224)">
<path d="M15.8594 11.4141L15.3906 11.8594C15.2734 11.9766 15.2734 12.1641 15.3906 12.2578L19.0234 15.8906H11.0312C10.8672 15.8906 10.75 16.0312 10.75 16.1719V16.8281C10.75 16.9922 10.8672 17.1094 11.0312 17.1094H19.0234L15.3906 20.7656C15.2734 20.8594 15.2734 21.0469 15.3906 21.1641L15.8594 21.6094C15.9531 21.7266 16.1406 21.7266 16.2578 21.6094L21.1562 16.7109C21.2734 16.5938 21.2734 16.4297 21.1562 16.3125L16.2578 11.4141C16.1406 11.2969 15.9531 11.2969 15.8594 11.4141Z" fill="white"/>
</g>
<defs>
<clipPath id="clip0_1298_224">
<rect width="16" height="16" fill="white" transform="translate(8 8)"/>
</clipPath>
</defs>
</svg>
